<svg xmlns="http://www.w3.org/2000/svg" xmlns:xlink="http://www.w3.org/1999/xlink" width="500" zoomAndPan="magnify" viewBox="0 0 375 374.999991" height="500" preserveAspectRatio="xMidYMid meet" version="1.0"><defs><clipPath id="0dac97d146"><path d="M 26.648438 26.648438 L 348.351562 26.648438 L 348.351562 348.351562 L 26.648438 348.351562 Z M 26.648438 26.648438 " clip-rule="nonzero"/></clipPath><clipPath id="377c8e03b3"><path d="M 187.5 348.351562 C 144.554688 348.351562 104.117188 331.636719 73.773438 301.226562 C 43.363281 270.882812 26.648438 230.445312 26.648438 187.5 C 26.648438 144.554688 43.363281 104.117188 73.773438 73.773438 C 104.117188 43.363281 144.554688 26.648438 187.5 26.648438 C 230.445312 26.648438 270.882812 43.363281 301.226562 73.773438 C 331.636719 104.179688 348.351562 144.554688 348.351562 187.5 C 348.351562 230.445312 331.636719 270.882812 301.226562 301.226562 C 270.882812 331.636719 230.445312 348.351562 187.5 348.351562 Z M 187.5 36.292969 C 147.125 36.292969 109.132812 52.042969 80.585938 80.585938 C 52.042969 109.132812 36.292969 147.125 36.292969 187.5 C 36.292969 227.875 52.042969 265.867188 80.585938 294.414062 C 109.132812 322.957031 147.125 338.707031 187.5 338.707031 C 227.875 338.707031 265.867188 322.957031 294.414062 294.414062 C 322.957031 265.867188 338.707031 227.875 338.707031 187.5 C 338.707031 147.125 322.957031 109.132812 294.414062 80.585938 C 265.867188 52.042969 227.875 36.292969 187.5 36.292969 Z M 187.5 36.292969 " clip-rule="nonzero"/></clipPath></defs><g clip-path="url(#0dac97d146)"><g clip-path="url(#377c8e03b3)"><path fill="#112241" d="M 26.648438 26.648438 L 348.351562 26.648438 L 348.351562 348.351562 L 26.648438 348.351562 Z M 26.648438 26.648438 " fill-opacity="1" fill-rule="nonzero"/></g></g><path fill="#000000" d="M 165.199219 248.203125 C 166.660156 248.203125 167.765625 248.152344 168.492188 248.058594 C 169.375 247.878906 170.105469 247.445312 170.683594 246.757812 C 171.410156 245.988281 171.777344 244.882812 171.777344 243.425781 L 171.726562 236.652344 C 171.691406 232.339844 171.679688 228.910156 171.679688 226.394531 L 169.394531 226.796875 C 167.5625 227.085938 165.71875 227.199219 163.863281 227.136719 C 161.535156 227.09375 159.222656 226.863281 156.933594 226.441406 C 154.472656 225.984375 152.25 224.988281 150.273438 223.453125 C 148.179688 221.867188 146.71875 219.832031 145.894531 217.335938 L 144.898438 215.039062 C 144.058594 213.222656 143.011719 211.535156 141.761719 209.972656 C 140.628906 208.351562 139.179688 207.085938 137.421875 206.179688 L 136.730469 205.691406 C 136.25 205.339844 135.820312 204.933594 135.441406 204.476562 C 135.070312 204.058594 134.773438 203.597656 134.542969 203.089844 C 134.347656 202.628906 134.503906 202.238281 135.027344 201.949219 C 135.957031 201.574219 136.921875 201.425781 137.921875 201.5 L 139.914062 201.800781 C 141.25 202.058594 142.894531 202.859375 144.851562 204.183594 C 146.796875 205.523438 148.410156 207.234375 149.675781 209.363281 C 151.207031 212.085938 153.042969 214.164062 155.207031 215.585938 C 157.160156 216.964844 159.332031 217.679688 161.722656 217.726562 C 163.910156 217.726562 165.808594 217.570312 167.398438 217.242188 C 168.957031 216.917969 170.449219 216.414062 171.886719 215.734375 C 172.480469 211.296875 174.097656 207.867188 176.75 205.484375 C 173.304688 205.144531 169.902344 204.546875 166.550781 203.6875 C 163.265625 202.78125 160.144531 201.484375 157.1875 199.796875 C 154.074219 198.105469 151.398438 195.886719 149.164062 193.132812 C 147.050781 190.472656 145.3125 186.996094 143.9375 182.679688 C 142.496094 177.804688 141.820312 172.824219 141.910156 167.742188 C 141.910156 159.71875 144.535156 152.875 149.773438 147.234375 C 147.316406 141.191406 147.550781 134.421875 150.464844 126.917969 C 152.398438 126.3125 155.257812 126.761719 159.035156 128.257812 C 162.816406 129.753906 165.601562 131.027344 167.351562 132.097656 C 169.113281 133.15625 170.511719 134.042969 171.582031 134.773438 C 177.835938 133.035156 184.210938 132.175781 190.703125 132.195312 C 197.269531 132.195312 203.648438 133.046875 209.824219 134.785156 L 213.59375 132.390625 C 216.195312 130.808594 219.246094 129.339844 222.757812 128.015625 C 226.285156 126.675781 228.972656 126.3125 230.832031 126.917969 C 233.820312 134.421875 234.089844 141.191406 231.621094 147.21875 C 236.871094 152.875 239.5 159.703125 239.5 167.742188 C 239.5 173.378906 238.816406 178.378906 237.457031 182.730469 C 236.09375 187.082031 234.332031 190.558594 232.179688 193.183594 C 229.910156 195.90625 227.222656 198.113281 224.109375 199.808594 C 221.152344 201.496094 218.03125 202.792969 214.75 203.699219 C 211.390625 204.554688 207.988281 205.148438 204.539062 205.484375 C 207.988281 208.464844 209.714844 213.179688 209.714844 219.625 L 209.714844 243.414062 C 209.714844 244.542969 209.886719 245.457031 210.214844 246.160156 C 210.539062 246.867188 211.070312 247.351562 211.808594 247.605469 C 212.535156 247.863281 213.191406 248.03125 213.75 248.09375 C 214.324219 248.167969 215.125 248.203125 216.183594 248.203125 Z M 165.199219 248.203125 " fill-opacity="1" fill-rule="nonzero"/><path fill="#000000" d="M 187.324219 284.574219 C 188.914062 284.574219 190.507812 284.535156 192.097656 284.457031 C 193.6875 284.378906 195.273438 284.261719 196.855469 284.105469 C 198.441406 283.949219 200.019531 283.753906 201.59375 283.519531 C 203.167969 283.289062 204.734375 283.015625 206.296875 282.707031 C 207.859375 282.394531 209.410156 282.046875 210.953125 281.660156 C 212.496094 281.273438 214.03125 280.847656 215.554688 280.386719 C 217.078125 279.925781 218.589844 279.425781 220.085938 278.890625 C 221.585938 278.351562 223.070312 277.78125 224.539062 277.171875 C 226.011719 276.5625 227.464844 275.917969 228.902344 275.238281 C 230.34375 274.554688 231.765625 273.839844 233.167969 273.089844 C 234.570312 272.339844 235.957031 271.554688 237.320312 270.738281 C 238.6875 269.917969 240.03125 269.070312 241.351562 268.183594 C 242.675781 267.300781 243.976562 266.382812 245.253906 265.4375 C 246.535156 264.488281 247.789062 263.507812 249.019531 262.5 C 250.25 261.488281 251.453125 260.449219 252.632812 259.382812 C 253.8125 258.3125 254.964844 257.214844 256.089844 256.089844 C 257.214844 254.964844 258.3125 253.8125 259.382812 252.632812 C 260.449219 251.453125 261.488281 250.25 262.5 249.019531 C 263.507812 247.789062 264.488281 246.535156 265.4375 245.253906 C 266.382812 243.976562 267.300781 242.675781 268.183594 241.351562 C 269.070312 240.03125 269.917969 238.6875 270.738281 237.320312 C 271.554688 235.957031 272.339844 234.570312 273.089844 233.167969 C 273.839844 231.765625 274.554688 230.34375 275.238281 228.902344 C 275.917969 227.464844 276.5625 226.011719 277.171875 224.539062 C 277.78125 223.070312 278.351562 221.585938 278.890625 220.085938 C 279.425781 218.589844 279.925781 217.078125 280.386719 215.554688 C 280.847656 214.03125 281.273438 212.496094 281.660156 210.953125 C 282.046875 209.410156 282.394531 207.859375 282.707031 206.296875 C 283.015625 204.734375 283.289062 203.167969 283.519531 201.59375 C 283.753906 200.019531 283.949219 198.441406 284.105469 196.855469 C 284.261719 195.273438 284.378906 193.683594 284.457031 192.097656 C 284.535156 190.507812 284.574219 188.914062 284.574219 187.324219 C 284.574219 185.734375 284.535156 184.140625 284.457031 182.550781 C 284.378906 180.960938 284.261719 179.375 284.105469 177.792969 C 283.949219 176.207031 283.753906 174.628906 283.519531 173.054688 C 283.289062 171.480469 283.015625 169.914062 282.707031 168.351562 C 282.394531 166.789062 282.046875 165.238281 281.660156 163.695312 C 281.273438 162.148438 280.847656 160.617188 280.386719 159.09375 C 279.925781 157.570312 279.425781 156.058594 278.890625 154.5625 C 278.351562 153.0625 277.78125 151.578125 277.171875 150.109375 C 276.5625 148.636719 275.917969 147.183594 275.238281 145.746094 C 274.554688 144.304688 273.839844 142.882812 273.089844 141.480469 C 272.339844 140.078125 271.554688 138.691406 270.738281 137.328125 C 269.917969 135.960938 269.070312 134.617188 268.183594 133.292969 C 267.300781 131.972656 266.382812 130.671875 265.4375 129.390625 C 264.488281 128.113281 263.507812 126.859375 262.5 125.628906 C 261.488281 124.398438 260.449219 123.195312 259.382812 122.015625 C 258.3125 120.835938 257.214844 119.683594 256.089844 118.558594 C 254.964844 117.433594 253.8125 116.335938 252.632812 115.265625 C 251.453125 114.199219 250.25 113.160156 249.019531 112.148438 C 247.789062 111.140625 246.535156 110.160156 245.253906 109.210938 C 243.976562 108.265625 242.675781 107.347656 241.351562 106.464844 C 240.03125 105.578125 238.6875 104.726562 237.320312 103.910156 C 235.957031 103.089844 234.570312 102.308594 233.167969 101.558594 C 231.765625 100.808594 230.34375 100.089844 228.902344 99.410156 C 227.464844 98.730469 226.011719 98.085938 224.539062 97.476562 C 223.070312 96.867188 221.585938 96.296875 220.085938 95.757812 C 218.589844 95.222656 217.078125 94.722656 215.554688 94.261719 C 214.03125 93.800781 212.496094 93.375 210.953125 92.988281 C 209.410156 92.601562 207.859375 92.253906 206.296875 91.941406 C 204.734375 91.632812 203.167969 91.359375 201.59375 91.125 C 200.019531 90.894531 198.441406 90.699219 196.855469 90.542969 C 195.273438 90.386719 193.6875 90.269531 192.097656 90.191406 C 190.507812 90.113281 188.914062 90.074219 187.324219 90.074219 C 185.734375 90.074219 184.140625 90.113281 182.550781 90.191406 C 180.960938 90.269531 179.375 90.386719 177.792969 90.542969 C 176.207031 90.699219 174.628906 90.894531 173.054688 91.125 C 171.480469 91.359375 169.914062 91.632812 168.351562 91.941406 C 166.789062 92.253906 165.238281 92.601562 163.695312 92.988281 C 162.148438 93.375 160.617188 93.800781 159.09375 94.261719 C 157.570312 94.722656 156.058594 95.222656 154.5625 95.757812 C 153.0625 96.296875 151.578125 96.867188 150.109375 97.476562 C 148.636719 98.085938 147.183594 98.730469 145.746094 99.410156 C 144.304688 100.089844 142.882812 100.808594 141.480469 101.558594 C 140.078125 102.308594 138.691406 103.089844 137.328125 103.910156 C 135.960938 104.726562 134.617188 105.578125 133.292969 106.464844 C 131.972656 107.347656 130.671875 108.265625 129.390625 109.210938 C 128.113281 110.160156 126.859375 111.140625 125.628906 112.148438 C 124.398438 113.160156 123.195312 114.199219 122.015625 115.265625 C 120.835938 116.335938 119.683594 117.433594 118.558594 118.558594 C 117.433594 119.683594 116.335938 120.835938 115.265625 122.015625 C 114.199219 123.195312 113.160156 124.398438 112.148438 125.628906 C 111.140625 126.859375 110.160156 128.113281 109.210938 129.390625 C 108.265625 130.671875 107.347656 131.972656 106.464844 133.292969 C 105.578125 134.617188 104.726562 135.960938 103.910156 137.328125 C 103.089844 138.691406 102.308594 140.078125 101.558594 141.480469 C 100.808594 142.882812 100.089844 144.304688 99.410156 145.746094 C 98.730469 147.183594 98.085938 148.636719 97.476562 150.109375 C 96.867188 151.578125 96.296875 153.0625 95.757812 154.5625 C 95.222656 156.058594 94.722656 157.570312 94.261719 159.09375 C 93.800781 160.617188 93.375 162.148438 92.988281 163.695312 C 92.601562 165.238281 92.253906 166.789062 91.941406 168.351562 C 91.632812 169.914062 91.359375 171.480469 91.125 173.054688 C 90.894531 174.628906 90.699219 176.207031 90.542969 177.792969 C 90.386719 179.375 90.269531 180.960938 90.191406 182.550781 C 90.113281 184.140625 90.074219 185.734375 90.074219 187.324219 C 90.074219 188.914062 90.113281 190.507812 90.191406 192.097656 C 90.269531 193.683594 90.386719 195.273438 90.542969 196.855469 C 90.699219 198.441406 90.894531 200.019531 91.125 201.59375 C 91.359375 203.167969 91.632812 204.734375 91.941406 206.296875 C 92.253906 207.859375 92.601562 209.410156 92.988281 210.953125 C 93.375 212.496094 93.800781 214.03125 94.261719 215.554688 C 94.722656 217.078125 95.222656 218.589844 95.757812 220.085938 C 96.296875 221.585938 96.867188 223.070312 97.476562 224.539062 C 98.085938 226.011719 98.730469 227.464844 99.410156 228.902344 C 100.089844 230.34375 100.808594 231.765625 101.558594 233.167969 C 102.308594 234.570312 103.089844 235.957031 103.910156 237.320312 C 104.726562 238.6875 105.578125 240.03125 106.464844 241.351562 C 107.347656 242.675781 108.265625 243.976562 109.210938 245.253906 C 110.160156 246.535156 111.140625 247.789062 112.148438 249.019531 C 113.160156 250.25 114.199219 251.453125 115.265625 252.632812 C 116.335938 253.8125 117.433594 254.964844 118.558594 256.089844 C 119.683594 257.214844 120.835938 258.3125 122.015625 259.382812 C 123.195312 260.449219 124.398438 261.488281 125.628906 262.5 C 126.859375 263.507812 128.113281 264.488281 129.390625 265.4375 C 130.671875 266.382812 131.972656 267.300781 133.292969 268.183594 C 134.617188 269.070312 135.960938 269.917969 137.328125 270.738281 C 138.691406 271.554688 140.078125 272.339844 141.480469 273.089844 C 142.882812 273.839844 144.304688 274.554688 145.746094 275.238281 C 147.183594 275.917969 148.636719 276.5625 150.109375 277.171875 C 151.578125 277.78125 153.0625 278.351562 154.5625 278.890625 C 156.058594 279.425781 157.570312 279.925781 159.09375 280.386719 C 160.617188 280.847656 162.148438 281.273438 163.695312 281.660156 C 165.238281 282.046875 166.789062 282.394531 168.351562 282.707031 C 169.914062 283.015625 171.480469 283.289062 173.054688 283.519531 C 174.628906 283.753906 176.207031 283.949219 177.792969 284.105469 C 179.375 284.261719 180.960938 284.378906 182.550781 284.457031 C 184.140625 284.535156 185.734375 284.574219 187.324219 284.574219 Z M 187.324219 308.886719 C 120.183594 308.886719 65.761719 254.464844 65.761719 187.324219 C 65.761719 120.183594 120.183594 65.761719 187.324219 65.761719 C 254.464844 65.761719 308.886719 120.183594 308.886719 187.324219 C 308.886719 254.464844 254.464844 308.886719 187.324219 308.886719 Z M 187.324219 308.886719 " fill-opacity="1" fill-rule="nonzero"/></svg>